<?xml version="1.0" encoding="UTF-8"?>
<svg id="Layer_1" xmlns="http://www.w3.org/2000/svg" version="1.1" viewBox="0 0 600 600">
  <!-- Generator: Adobe Illustrator 30.0.0, SVG Export Plug-In . SVG Version: 2.1.1 Build 123)  -->
  <path d="M378.88,384.78c-13.63-18.92-24.98-37.05-29.06-62.26-9.59-59.23,13.9-54.34,50.21-34.48,10.95,5.99,24.5,19.95,35.91,22.73,34.47,8.43,57.66-6.48,90.16,26.2,14.69,14.76,22.13,40.08,38.62,49.68,18.92,10.98,35.09,4.65,14.06,38.16-25.77,41.08-66.87,32.38-95.05,58.11-9.62,8.79-18.2,21.7-28.82,31.15-80.93,71.96-220.68,58.78-288.89-31.18-6.17-8.12-17.09-20.87-11.74-31.59,3.84-7.7,23.34-26.1,30.34-31.88,55.98-46.19,129.15-53.67,194.22-34.65h.01ZM384.16,317c-7.61.73,1.36,24.82,3.14,28.9,5.29,12.1,21.14,34.41,30.58,16.03,11.89-23.13-19.11-40.01-33.72-44.94h0Z"/>
  <path d="M107.68,312.13c-25.74,84.96-3.11,172.85,61.89,215.06,10.81,7.02,28.69,21.52,46.27,26.04-111.18-8.28-208.81-111.63-204.4-249,31.22-13.97,66.15-7.73,96.26,7.89h-.01Z"/>
  <path d="M71.87,140.89c-2.5-2.52,14.63-21.54,16.91-23.91,7.39-7.72,32.96-31.64,41.19-31.53,35.9.43,83.07,56.86,77.08,101.57l-38.7,29.28c-19.13-43.26-54.41-74.39-96.46-75.42h-.01Z"/>
  <path d="M232.79,171.07c3.53-35.72-16.53-77.06-42.48-94.13-9.98-6.57-18.63-7.39-28.38-11.56-2.26-.97-5.06-1.18-5.38-4.9,16.64-7.94,31.36-18.07,49.8-20.11,94.6-10.46,113.18,99.83,26.44,130.69Z"/>
  <path d="M16.82,259.07c-4.98-8.33,18.05-66.2,24.4-75.34,10.13-14.58,49.22,1.31,62.11,9.04,16.88,10.1,33.54,27.99,42.33,47.89l-26.14,43.44c-28.61-26.04-67.86-35.05-102.71-25.01h0Z"/>
</svg>