<?xml version="1.0" encoding="UTF-8"?>
<svg id="Layer_1" xmlns="http://www.w3.org/2000/svg" version="1.1" viewBox="0 0 1600 1600">
  <!-- Generator: Adobe Illustrator 30.0.0, SVG Export Plug-In . SVG Version: 2.1.1 Build 123)  -->
  <defs>
    <style>
      .st0 {
        fill: #6a67e4;
        stroke: #000;
        stroke-miterlimit: 10;
        stroke-width: 6px;
      }
    </style>
  </defs>
  <path class="st0" d="M403.44,157.37l100.18,196.45c60.24-27.75,129.75,13.45,122.42,82.16l175.37,308.11c8.16,24.02,6.62,48.01-2.44,71.51-10.8,28.02-34.98,34.8-16.85,67.04,3.35,5.95,7.14-.24,9.37-3.61,44.74-68.03,78.65-147.46,121.15-217.3,4.16-4.23,5.2-.63,7.95,1.87,12.86,11.79,22.48,37.33,38.97,48.29l1.11,7.2-172.04,324.66-91.76-162.72c-.59-15.76,74.1-71.93,62.92-114.53-49.39-98.17-118.94-192.53-167.86-289.96-12.73-25.34-8.21-18.49-7.71-43.59.6-29.81-27.42-49.38-56.03-42.82-17.37,3.98-20.69,22.92-35.58,21.6-12.86-1.14-92.65-18.62-103-22.96-9.01-3.79-9.32-26.48-36.06-25.36-35.03,1.46-43.36,54.6-5.71,60.78,17.43,2.86,18.09-4.31,29.71-7.48,25.63-6.99,81.07,19.29,110.5,18.67,10.62,3.74,8.03,15.95,13.79,24.88,10.26,15.91,35.1,18.9,52.47,16.65l129.2,227.46c2.37,8.85-19.42,24.1-25.36,31.65-8.62,10.96-13.03,24.72-24.27,33.75l-114.43-211.09-119.29-3.19-54.55-103.39c-27.78-10.25-39.76-8.39-52.47-37.8-2.81-6.51-1.55-15.24-5.45-20.35-3.35-4.37-46.77-20.09-45.41-15.84l70.89,140.23c-95.48,9.47-123.28,141.59-43,192.89,44.42,28.38,96.64,11.24,146.18,18.22l124.09,230.49c6.75,1.63,45.78-58.6,53.26-68.4,19.71-25.81,43.49-50.95,62.09-77.45,14.75-21.01,13.27-22.04,19.06-45.21,7.3-29.19,59.26-14.39,45.94,16.96-5.99,14.08-22,10.59-28.92,16.18-4.57,3.71-17.21,27.55-22.92,35.1-36.56,48.27-73.77,96.13-110.48,144.31-9.12,7.07,11.34,37.83,17.3,36.53l70.96-93.43,17.42,26.74-73.41,98.09c-1.06,2.67.44,4.7,1.2,7.06,1.2,3.72,35.88,65.22,38.69,67.92,10.02,9.61,24.12-13.56,25.94-22.46,1.77-8.68-4.29-17-.34-29.27,4.55-14.1,20.77-25.99,35.68-25.6,36.06.98,31.65,28.62,39.47,50.71,4.2,11.81,35.91,61.88,44.73,74.54,4.88,7.01,9.51,17.39,18.93,16.9l95.57-173.84c9.51-1.71,17.74-2.11,25.52,4.03,17,13.42,40.38,68.42,57.51,86.83l6.67,2.07,45.65-89.73c27.84.08,52.58,8.28,80.8,5.03,89.3-10.31,102.48-124.21,25.91-162.72-6.78-3.42-15.13-4.29-22.15-6.93-3.22-1.2-5.95,1.69-4-4.59l260.06-484.64-4.15-9.89-46.22,3.14-36.14,68.78-97.99-1.22c-14.57,23.92-34.53,50.69-62.99,59.23-7.64,2.29-16.21.02-22.74,3.04-7.47,3.46-55.83,107.68-66.31,123.86-1.69,2.62-3.84,4.65-6.2,6.64l-46.71-62.71,48.43-90.56c-10.34-21.81-21.86-28.72-25.52-54.95-6.21-44.61,9.76-87.94,53.77-106.64,25.32-10.77,45.54-6.02,71.63-5.69l72.98-139.8,362.09-.49c-48.77,89.63-94.07,181.34-142.08,271.38-13.69,25.68-29.47,52.92-43.65,79.53-60.83,114.15-123.86,227.35-183.52,342.01-5.68,14.26,17.19,31.11,21.66,43.16,22,59.25-6.57,136.83-66.91,159.64-19.06,7.2-35.93,4.65-54.53,9.94l-176.14,320.25c-50.84,79.79-176.1,83.71-231.04,6.44l-329.79-616.21c-151.67,18.88-230.11-153.33-128.92-262.61L39.45,161.84l4.57-7.32c1.25-.07,2.36,2.85,3.22,2.85h356.21ZM1136.58,359.02c-42.16-57.72-131.69,5.17-85.04,69.77,38.04,52.69,130.37-7.71,85.04-69.77ZM768.64,1255.51c-21.79-19.5-2.75-40.64-5.58-53.87-4.47-20.77-41.57-57.48-48.6-80.64-5.35-6.54-12.41,1.71-19.26,1.85-6.49.15-13.95-5.03-19.68-4.86-7.07.21-27.55,34.1-26.53,42.59,29.73,54.17,56.6,116.69,89.65,168.44,4.34,6.81,10.38,17.53,16,22.69,27.79,25.45,79.64,18.61,98.93-14.18l106.97-199.57-52.68-84.52-15.04,20.38-65.79,118.12c-5.71,18.9,18.67,32.1-1.79,59.26-13.69,18.18-40.17,19-56.6,4.29h-.02Z"/>
  <path class="st0" d="M975.32,633.05c16.07,19.83,33.31,38.9,49.03,59.1,3.25,4.18,9.38,1.48,7.63,11.24l-95,169.83c-2.75,4.41-1.81,8.12-.39,12.7.76,2.5,24.18,40.2,26.01,41.86,9.51,8.6,90.65-.03,109.26,3.37,4.23-27.18,47.02-26.61,55-3.27,13.14,38.37-33.03,58.35-52.04,25.57l-121.29-.46-42.66-63.77,1.12-18.61c24.18-43.8,52.78-85.99,76.13-130.16,4.6-8.7,16.13-28.41,14.95-36.56-2.13-14.54-70.67-80.83-79.11-101.66-9.27-7.51-37.85.88-33.26-26.61,4.75-28.51,42.71-29.81,49.77-5.72,2.41,8.2-4.2,14.12-.44,22.53,1.12,2.52,29.84,33.93,35.31,40.64h-.02v-.02Z"/>
  <path class="st0" d="M464.17,612.38l112.07,199.18-.11,6.65-19.92,12.54-110.8-191.57-75.2-.94c-7.64,2.34-13.58,22.28-31.13,26.88-75.61,19.86-76.81-95.34-8.38-85.32,23.26,3.4,30.75,28.75,39.5,31.44l93.97,1.14h0Z"/>
  <path class="st0" d="M1159.96,612.77c1.35,1.84,7.11,20.74,7.24,23.52,1.32,28.69-28.36,44.55-54.13,43.77l-102.02,186.35-16.41-16.18,98.09-176.28c2.39-12.08-9.42-19.22-10.6-32.56-2.42-27.18,27.18-51.98,53.12-44.19,2.07.62,23.84,14.41,24.72,15.6h0v-.02Z"/>
</svg>