<?xml version="1.0" encoding="UTF-8"?>
<svg xmlns="http://www.w3.org/2000/svg" version="1.1" viewBox="0 0 600 600">
  <!-- Generator: Adobe Illustrator 30.0.0, SVG Export Plug-In . SVG Version: 2.1.1 Build 123)  -->
  <defs>
    <style>
      .st0 {
        fill: #fff;
      }
    </style>
  </defs>
  <g id="Layer_2">
    <circle cx="300" cy="307.57" r="216.34"/>
  </g>
  <g id="Layer_1">
    <path class="st0" d="M352.96,356.91c-9.15-12.7-16.77-24.87-19.51-41.8-6.44-39.76,9.33-36.48,33.71-23.15,7.35,4.02,16.45,13.39,24.11,15.26,23.14,5.66,38.71-4.35,60.53,17.59,9.86,9.91,14.86,26.91,25.93,33.35,12.7,7.37,23.56,3.12,9.44,25.62-17.3,27.58-44.89,21.74-63.81,39.01-6.46,5.9-12.22,14.57-19.35,20.91-54.33,48.31-148.15,39.46-193.94-20.93-4.14-5.45-11.47-14.01-7.88-21.21,2.58-5.17,15.67-17.52,20.37-21.4,37.58-31.01,86.7-36.03,130.39-23.26ZM356.5,311.41c-5.11.49.91,16.66,2.11,19.4,3.55,8.12,14.19,23.1,20.53,10.76,7.98-15.53-12.83-26.86-22.64-30.17Z"/>
    <path class="st0" d="M170.89,308.14c-17.28,57.04-2.09,116.04,41.55,144.38,7.26,4.71,19.26,14.45,31.06,17.48-74.64-5.56-140.18-74.94-137.22-167.16,20.96-9.38,44.41-5.19,64.62,5.3Z"/>
    <path class="st0" d="M146.85,193.18c-1.68-1.69,9.82-14.46,11.35-16.05,4.96-5.18,22.13-21.24,27.65-21.17,24.1.29,55.77,38.17,51.75,68.19l-25.98,19.66c-12.84-29.04-36.53-49.94-64.76-50.63Z"/>
    <path class="st0" d="M254.88,213.44c2.37-23.98-11.1-51.73-28.52-63.19-6.7-4.41-12.51-4.96-19.05-7.76-1.52-.65-3.4-.79-3.61-3.29,11.17-5.33,21.05-12.13,33.43-13.5,63.51-7.02,75.98,67.02,17.75,87.74Z"/>
    <path class="st0" d="M109.89,272.52c-3.34-5.59,12.12-44.44,16.38-50.58,6.8-9.79,33.04.88,41.7,6.07,11.33,6.78,22.52,18.79,28.42,32.15l-17.55,29.16c-19.21-17.48-45.56-23.53-68.95-16.79Z"/>
  </g>
</svg>