<?xml version="1.0" encoding="UTF-8"?>
<svg id="Layer_1" xmlns="http://www.w3.org/2000/svg" version="1.1" viewBox="0 0 1600 1600">
  <!-- Generator: Adobe Illustrator 30.0.0, SVG Export Plug-In . SVG Version: 2.1.1 Build 123)  -->
  <defs>
    <style>
      .st0, .st1 {
        fill: #fff;
      }

      .st1 {
        stroke: #000;
        stroke-miterlimit: 10;
        stroke-width: 6px;
      }
    </style>
  </defs>
  <path class="st1" d="M556.15,404.87l61.6,120.79c37.04-17.06,79.78,8.27,75.27,50.52l107.83,189.45c5.02,14.77,4.07,29.52-1.5,43.97-6.64,17.23-21.51,21.4-10.36,41.22,2.06,3.66,4.39-.15,5.76-2.22,27.51-41.83,48.36-90.67,74.49-133.61,2.56-2.6,3.2-.39,4.89,1.15,7.91,7.25,13.82,22.95,23.96,29.69l.68,4.43-105.78,199.62-56.42-100.05c-.36-9.69,45.56-44.23,38.69-70.42-30.37-60.36-73.13-118.38-103.21-178.29-7.83-15.58-5.05-11.37-4.74-26.8.37-18.33-16.86-30.36-34.45-26.33-10.68,2.45-12.72,14.09-21.88,13.28-7.91-.7-56.97-11.45-63.33-14.12-5.54-2.33-5.73-16.28-22.17-15.59-21.54.9-26.66,33.57-3.51,37.37,10.72,1.76,11.12-2.65,18.27-4.6,15.76-4.3,49.85,11.86,67.94,11.48,6.53,2.3,4.94,9.81,8.48,15.3,6.31,9.78,21.58,11.62,32.26,10.24l79.44,139.86c1.46,5.44-11.94,14.82-15.59,19.46-5.3,6.74-8.01,15.2-14.92,20.75l-70.36-129.79-73.35-1.96-33.54-63.57c-17.08-6.3-24.45-5.16-32.26-23.24-1.73-4-.95-9.37-3.35-12.51-2.06-2.69-28.76-12.35-27.92-9.74l43.59,86.22c-58.71,5.82-75.8,87.06-26.44,118.6,27.31,17.45,59.42,6.91,89.88,11.2l76.3,141.72c4.15,1,28.15-36.03,32.75-42.06,12.12-15.87,26.74-31.33,38.18-47.62,9.07-12.92,8.16-13.55,11.72-27.8,4.49-17.95,36.44-8.85,28.25,10.43-3.68,8.66-13.53,6.51-17.78,9.95-2.81,2.28-10.58,16.94-14.09,21.58-22.48,29.68-45.36,59.11-67.93,88.73-5.61,4.35,6.97,23.26,10.64,22.46l43.63-57.45,10.71,16.44-45.14,60.31c-.65,1.64.27,2.89.74,4.34.74,2.29,22.06,40.1,23.79,41.76,6.16,5.91,14.83-8.34,15.95-13.81,1.09-5.34-2.64-10.45-.21-18,2.8-8.67,12.77-15.98,21.94-15.74,22.17.6,19.46,17.6,24.27,31.18,2.58,7.26,22.08,38.05,27.5,45.83,3,4.31,5.85,10.69,11.64,10.39l58.76-106.89c5.85-1.05,10.91-1.3,15.69,2.48,10.45,8.25,24.83,42.07,35.36,53.39l4.1,1.27,28.07-55.17c17.12.05,32.33,5.09,49.68,3.09,54.91-6.34,63.01-76.37,15.93-100.05-4.17-2.1-9.3-2.64-13.62-4.26-1.98-.74-3.66,1.04-2.46-2.82l159.9-297.99-2.55-6.08-28.42,1.93-22.22,42.29-60.25-.75c-8.96,14.71-21.23,31.17-38.73,36.42-4.7,1.41-9.97.01-13.98,1.87-4.59,2.13-34.33,66.21-40.77,76.16-1.04,1.61-2.36,2.86-3.81,4.08l-28.72-38.56,29.78-55.68c-6.36-13.41-13.44-17.66-15.69-33.79-3.82-27.43,6-54.07,33.06-65.57,15.57-6.62,28-3.7,44.04-3.5l44.87-85.96,222.64-.3c-29.99,55.11-57.84,111.5-87.36,166.86-8.42,15.79-18.12,32.54-26.84,48.9-37.4,70.19-76.16,139.79-112.84,210.29-3.49,8.77,10.57,19.13,13.32,26.54,13.53,36.43-4.04,84.13-41.14,98.16-11.72,4.43-22.09,2.86-33.53,6.11l-108.3,196.91c-31.26,49.06-108.28,51.47-142.06,3.96l-202.78-378.89c-93.26,11.61-141.49-94.28-79.27-161.47l-114.48-214.63,2.81-4.5c.77-.04,1.45,1.75,1.98,1.75h219ZM1006.93,528.86c-25.92-35.49-80.97,3.18-52.29,42.9,23.39,32.4,80.16-4.74,52.29-42.9ZM780.7,1080.08c-13.4-11.99-1.69-24.99-3.43-33.12-2.75-12.77-25.56-35.34-29.88-49.58-3.29-4.02-7.63,1.05-11.84,1.14-3.99.09-8.58-3.09-12.1-2.99-4.35.13-16.94,20.97-16.31,26.19,18.28,33.31,34.8,71.75,55.12,103.57,2.67,4.19,6.38,10.78,9.84,13.95,17.09,15.65,48.97,11.44,60.83-8.72l65.77-122.71-32.39-51.97-9.25,12.53-40.45,72.63c-3.51,11.62,11.48,19.74-1.1,36.44-8.42,11.18-24.7,11.68-34.8,2.64Z"/>
  <path class="st0" d="M907.78,697.35c9.88,12.19,20.48,23.92,30.15,36.34,2,2.57,5.77.91,4.69,6.91l-58.41,104.42c-1.69,2.71-1.11,4.99-.24,7.81.47,1.54,14.87,24.72,15.99,25.74,5.85,5.29,55.74-.02,67.18,2.07,2.6-16.71,28.91-16.36,33.82-2.01,8.08,23.59-20.31,35.88-32,15.72l-74.58-.28-26.23-39.21.69-11.44c14.87-26.93,32.45-52.87,46.81-80.03,2.83-5.35,9.92-17.47,9.19-22.48-1.31-8.94-43.45-49.7-48.64-62.51-5.7-4.62-23.27.54-20.45-16.36,2.92-17.53,26.26-18.33,30.6-3.52,1.48,5.04-2.58,8.68-.27,13.85.69,1.55,18.35,20.86,21.71,24.99Z"/>
  <path class="st0" d="M593.49,684.64l68.91,122.47-.07,4.09-12.25,7.71-68.13-117.79-46.24-.58c-4.7,1.44-8.35,13.7-19.14,16.53-46.49,12.21-47.23-58.62-5.15-52.46,14.3,2.09,18.91,17.68,24.29,19.33l57.78.7Z"/>
  <path class="st0" d="M1021.31,684.88c.83,1.13,4.37,12.75,4.45,14.46.81,17.64-17.44,27.39-33.28,26.91l-62.73,114.58-10.09-9.95,60.31-108.39c1.47-7.43-5.79-11.82-6.52-20.02-1.49-16.71,16.71-31.96,32.66-27.17,1.27.38,14.66,8.86,15.2,9.59Z"/>
</svg>