<?xml version="1.0" encoding="UTF-8"?>
<svg id="Layer_1" xmlns="http://www.w3.org/2000/svg" version="1.1" viewBox="0 0 600 600">
  <!-- Generator: Adobe Illustrator 30.0.0, SVG Export Plug-In . SVG Version: 2.1.1 Build 123)  -->
  <g>
    <path d="M352.96,289.98c-9.15-12.7-16.77-24.87-19.51-41.8-6.44-39.76,9.33-36.48,33.71-23.15,7.35,4.02,16.45,13.39,24.11,15.26,23.14,5.66,38.71-4.35,60.53,17.59,9.86,9.91,14.86,26.91,25.93,33.35,12.7,7.37,23.56,3.12,9.44,25.62-17.3,27.58-44.89,21.74-63.81,39.01-6.46,5.9-12.22,14.57-19.35,20.91-54.33,48.31-148.15,39.46-193.94-20.93-4.14-5.45-11.47-14.01-7.88-21.21,2.58-5.17,15.67-17.52,20.37-21.4,37.58-31.01,86.7-36.03,130.39-23.26ZM356.5,244.48c-5.11.49.91,16.66,2.11,19.4,3.55,8.12,14.19,23.1,20.53,10.76,7.98-15.53-12.83-26.86-22.64-30.17Z"/>
    <path d="M170.89,241.21c-17.28,57.04-2.09,116.04,41.55,144.38,7.26,4.71,19.26,14.45,31.06,17.48-74.64-5.56-140.18-74.94-137.22-167.16,20.96-9.38,44.41-5.19,64.62,5.3Z"/>
    <path d="M146.85,126.26c-1.68-1.69,9.82-14.46,11.35-16.05,4.96-5.18,22.13-21.24,27.65-21.17,24.1.29,55.77,38.17,51.75,68.19l-25.98,19.66c-12.84-29.04-36.53-49.94-64.76-50.63Z"/>
    <path d="M254.88,146.51c2.37-23.98-11.1-51.73-28.52-63.19-6.7-4.41-12.51-4.96-19.05-7.76-1.52-.65-3.4-.79-3.61-3.29,11.17-5.33,21.05-12.13,33.43-13.5,63.51-7.02,75.98,67.02,17.75,87.74Z"/>
    <path d="M109.89,205.6c-3.34-5.59,12.12-44.44,16.38-50.58,6.8-9.79,33.04.88,41.7,6.07,11.33,6.78,22.52,18.79,28.42,32.15l-17.55,29.16c-19.21-17.48-45.56-23.53-68.95-16.79Z"/>
  </g>
  <g>
    <path d="M91.26,504.39l-23.52-59.28h15.6l10.32,27.24c1.28,3.52,2.38,6.74,3.3,9.66.92,2.92,1.58,5.18,1.98,6.78.4-1.84,1.1-4.22,2.1-7.14,1-2.92,2.14-6.02,3.42-9.3l10.8-27.24h15.12l-24.72,59.28h-14.4Z"/>
    <path d="M153.66,505.95c-6.24,0-11.18-1.7-14.82-5.1-3.64-3.4-5.46-7.86-5.46-13.38s1.9-9.78,5.7-13.02c3.8-3.24,9.22-5.14,16.26-5.7l17.76-1.44v-1.32c0-2.72-.5-4.9-1.5-6.54-1-1.64-2.42-2.84-4.26-3.6-1.84-.76-4-1.14-6.48-1.14-4.32,0-7.64.86-9.96,2.58-2.32,1.72-3.48,4.14-3.48,7.26h-12.48c0-4.32,1.1-8.06,3.3-11.22,2.2-3.16,5.32-5.62,9.36-7.38,4.04-1.76,8.7-2.64,13.98-2.64s9.96.94,13.8,2.82c3.84,1.88,6.8,4.68,8.88,8.4,2.08,3.72,3.12,8.34,3.12,13.86v36h-12.84l-1.08-8.76c-1.28,3.04-3.74,5.52-7.38,7.44-3.64,1.92-7.78,2.88-12.42,2.88ZM158.34,494.91c4.56,0,8.18-1.28,10.86-3.84,2.68-2.56,4.02-6.12,4.02-10.68v-3.12l-12.36.96c-4.56.4-7.8,1.34-9.72,2.82-1.92,1.48-2.88,3.42-2.88,5.82,0,2.64.88,4.64,2.64,6,1.76,1.36,4.24,2.04,7.44,2.04Z"/>
    <path d="M216.54,504.39h-14.52v-89.28h14.52v89.28Z"/>
    <path d="M226.02,445.11h37.44v12.24h-37.44v-12.24ZM252.06,504.39h-14.64v-77.76h14.64v77.76Z"/>
    <path d="M298.62,505.95c-5.84,0-11.02-1.34-15.54-4.02-4.52-2.68-8.06-6.36-10.62-11.04-2.56-4.68-3.84-10.06-3.84-16.14s1.24-11.6,3.72-16.32c2.48-4.72,5.96-8.42,10.44-11.1,4.48-2.68,9.6-4.02,15.36-4.02s11.16,1.26,15.48,3.78c4.32,2.52,7.66,6.02,10.02,10.5,2.36,4.48,3.54,9.84,3.54,16.08v4.44l-50.88.12.24-9.36h36.12c0-4.08-1.3-7.36-3.9-9.84-2.6-2.48-6.1-3.72-10.5-3.72-3.44,0-6.34.72-8.7,2.16-2.36,1.44-4.14,3.6-5.34,6.48-1.2,2.88-1.8,6.4-1.8,10.56,0,6.4,1.38,11.24,4.14,14.52,2.76,3.28,6.86,4.92,12.3,4.92,4,0,7.3-.76,9.9-2.28,2.6-1.52,4.3-3.68,5.1-6.48h13.56c-1.28,6.48-4.46,11.56-9.54,15.24-5.08,3.68-11.5,5.52-19.26,5.52Z"/>
    <path d="M353.58,504.39h-14.64v-59.28h13.44l1.8,10.56-1.68-1.44c1.2-2.88,3.4-5.42,6.6-7.62,3.2-2.2,7.2-3.3,12-3.3,5.2,0,9.46,1.36,12.78,4.08,3.32,2.72,5.62,6.32,6.9,10.8h-2.4c.88-4.48,3.14-8.08,6.78-10.8,3.64-2.72,8.06-4.08,13.26-4.08,7.2,0,12.72,2.02,16.56,6.06,3.84,4.04,5.76,9.46,5.76,16.26v38.76h-14.52v-34.92c0-4.24-1.06-7.46-3.18-9.66-2.12-2.2-4.94-3.3-8.46-3.3-2.24,0-4.3.52-6.18,1.56-1.88,1.04-3.38,2.6-4.5,4.68-1.12,2.08-1.68,4.76-1.68,8.04v33.6h-14.64v-35.04c0-4.16-1.04-7.32-3.12-9.48-2.08-2.16-4.84-3.24-8.28-3.24-2.32,0-4.44.5-6.36,1.5-1.92,1-3.44,2.56-4.56,4.68-1.12,2.12-1.68,4.78-1.68,7.98v33.6Z"/>
    <path d="M452.34,433.23c-2.48,0-4.58-.86-6.3-2.58-1.72-1.72-2.58-3.82-2.58-6.3s.86-4.56,2.58-6.24c1.72-1.68,3.82-2.52,6.3-2.52s4.58.84,6.3,2.52c1.72,1.68,2.58,3.76,2.58,6.24s-.86,4.58-2.58,6.3c-1.72,1.72-3.82,2.58-6.3,2.58ZM445.14,504.39v-59.28h14.64v59.28h-14.64Z"/>
    <path d="M492.54,505.95c-6.24,0-11.18-1.7-14.82-5.1-3.64-3.4-5.46-7.86-5.46-13.38s1.9-9.78,5.7-13.02c3.8-3.24,9.22-5.14,16.26-5.7l17.76-1.44v-1.32c0-2.72-.5-4.9-1.5-6.54-1-1.64-2.42-2.84-4.26-3.6-1.84-.76-4-1.14-6.48-1.14-4.32,0-7.64.86-9.96,2.58-2.32,1.72-3.48,4.14-3.48,7.26h-12.48c0-4.32,1.1-8.06,3.3-11.22,2.2-3.16,5.32-5.62,9.36-7.38,4.04-1.76,8.7-2.64,13.98-2.64s9.96.94,13.8,2.82c3.84,1.88,6.8,4.68,8.88,8.4,2.08,3.72,3.12,8.34,3.12,13.86v36h-12.84l-1.08-8.76c-1.28,3.04-3.74,5.52-7.38,7.44-3.64,1.92-7.78,2.88-12.42,2.88ZM497.22,494.91c4.56,0,8.18-1.28,10.86-3.84,2.68-2.56,4.02-6.12,4.02-10.68v-3.12l-12.36.96c-4.56.4-7.8,1.34-9.72,2.82-1.92,1.48-2.88,3.42-2.88,5.82,0,2.64.88,4.64,2.64,6,1.76,1.36,4.24,2.04,7.44,2.04Z"/>
  </g>
</svg>